<?xml version="1.0" encoding="utf-8"?>
<svg width="195" height="44" viewBox="0 0 195 44" xmlns="http://www.w3.org/2000/svg">
  <defs>
    <clipPath id="satori_bc-id">
      <path x="0" y="0" width="195" height="44" d="M8,0 h179 a8,8 0 0 1 8,8 v28 a8,8 0 0 1 -8,8 h-179 a8,8 0 0 1 -8,-8 v-28 a8,8 0 0 1 8,-8"/>
    </clipPath>
  </defs>
  <mask id="satori_ms-id-0" maskUnits="userSpaceOnUse">
    <rect x="0" y="0" width="195" height="44" fill="#fff"/>
    <path x="0" y="0" width="195" height="44" fill="#000" stroke-width="0" d="M8,0 h179 a8,8 0 0 1 8,8 v28 a8,8 0 0 1 -8,8 h-179 a8,8 0 0 1 -8,-8 v-28 a8,8 0 0 1 8,-8"/>
  </mask>
  <defs>
    <filter id="satori_s-id-0" x="-0.5128205128205128%" y="-2.272727272727273%" width="101.02564102564102%" height="104.54545454545455%">
      <feGaussianBlur stdDeviation="1" result="b"/>
      <feFlood flood-color="rgba(0, 0, 0, 0.05)" in="SourceGraphic" result="f"/>
      <feComposite in="f" in2="b" operator="in"/>
    </filter>
  </defs>
  <g mask="url(#satori_ms-id-0)" filter="url(#satori_s-id-0)" opacity="1">
    <path x="0" y="1" width="195" height="44" fill="#fff" stroke="#fff" stroke-width="0" d="M8,1 h179 a8,8 0 0 1 8,8 v28 a8,8 0 0 1 -8,8 h-179 a8,8 0 0 1 -8,-8 v-28 a8,8 0 0 1 8,-8"/>
  </g>
  <path x="0" y="0" width="195" height="44" fill="#27272A" d="M8,0 h179 a8,8 0 0 1 8,8 v28 a8,8 0 0 1 -8,8 h-179 a8,8 0 0 1 -8,-8 v-28 a8,8 0 0 1 8,-8"/>
  <path width="195" height="44" clip-path="url(#satori_bc-id)" fill="none" stroke="#3F3F46" stroke-width="2" d="M2.343,2.343 A8,8 0 0 1 8,0 h179 a8,8 0 0 1 8,8 v28 a8,8 0 0 1 -8,8 h-179 a8,8 0 0 1 -8,-8 v-28 A8,8 0 0 1 2.343,2.343"/>
  <path fill="#E4E4E7" d="M51.2 31.6L49.7 31.6L51.4 21.4L52.9 21.4L51.2 31.6ZM53.0 29.0L45.1 29.0L45.4 27.5L53.3 27.5L53.0 29.0ZM47.7 31.6L46.1 31.6L47.8 21.4L49.3 21.4L47.7 31.6ZM53.6 25.5L45.7 25.5L46.0 23.9L53.9 23.9L53.6 25.5ZM56.9 21.4L59.0 21.4L59.0 31.6L57.0 31.6L57.0 23.2L56.9 23.2L54.6 24.9L54.6 23.0L56.9 21.4Z M66.1 31.6L64.0 31.6L64.0 21.4L68.0 21.4Q69.2 21.4 70.0 21.8Q70.8 22.2 71.3 23.0Q71.7 23.8 71.7 24.8L71.7 24.8Q71.7 25.8 71.3 26.6Q70.8 27.3 70.0 27.8Q69.2 28.2 68.0 28.2L68.0 28.2L65.4 28.2L65.4 26.5L67.7 26.5Q68.3 26.5 68.7 26.3Q69.2 26.1 69.4 25.7Q69.6 25.3 69.6 24.8L69.6 24.8Q69.6 24.3 69.4 23.9Q69.2 23.5 68.7 23.3Q68.3 23.1 67.7 23.1L67.7 23.1L66.1 23.1L66.1 31.6ZM75.1 31.6L73.0 31.6L73.0 24.0L75.0 24.0L75.0 25.3L75.1 25.3Q75.3 24.6 75.8 24.3Q76.2 23.9 76.9 23.9L76.9 23.9Q77.1 23.9 77.2 23.9Q77.4 24.0 77.5 24.0L77.5 24.0L77.5 25.8Q77.4 25.7 77.2 25.7Q76.9 25.7 76.7 25.7L76.7 25.7Q76.2 25.7 75.8 25.9Q75.5 26.1 75.3 26.5Q75.1 26.8 75.1 27.3L75.1 27.3L75.1 31.6ZM82.0 31.7L82.0 31.7Q80.9 31.7 80.1 31.2Q79.2 30.7 78.8 29.9Q78.3 29.0 78.3 27.8L78.3 27.8Q78.3 26.6 78.8 25.8Q79.2 24.9 80.1 24.4Q80.9 23.9 82.0 23.9L82.0 23.9Q83.2 23.9 84.0 24.4Q84.8 24.9 85.3 25.8Q85.7 26.6 85.7 27.8L85.7 27.8Q85.7 29.0 85.3 29.9Q84.8 30.7 84.0 31.2Q83.2 31.7 82.0 31.7ZM82.0 30.1L82.0 30.1Q82.6 30.1 82.9 29.8Q83.3 29.5 83.5 29.0Q83.7 28.5 83.7 27.8L83.7 27.8Q83.7 27.1 83.5 26.6Q83.3 26.1 82.9 25.8Q82.6 25.5 82.0 25.5L82.0 25.5Q81.5 25.5 81.1 25.8Q80.8 26.1 80.6 26.6Q80.4 27.1 80.4 27.8L80.4 27.8Q80.4 28.5 80.6 29.0Q80.8 29.5 81.1 29.8Q81.5 30.1 82.0 30.1ZM87.1 31.9L87.1 24.0L89.1 24.0L89.1 32Q89.2 32.8 88.8 33.4Q88.5 33.9 87.9 34.2Q87.3 34.4 86.4 34.4L86.4 34.4L85.9 34.4L85.9 32.8L86.2 32.8Q86.7 32.8 86.9 32.6Q87.1 32.4 87.1 31.9L87.1 31.9ZM88.1 23.0L88.1 23.0Q87.7 23.0 87.3 22.7Q87.0 22.4 87.0 22.0L87.0 22.0Q87.0 21.5 87.3 21.2Q87.7 20.9 88.1 20.9L88.1 20.9Q88.6 20.9 88.9 21.2Q89.3 21.5 89.3 22.0L89.3 22.0Q89.3 22.4 88.9 22.7Q88.6 23.0 88.1 23.0ZM94.2 31.7L94.2 31.7Q93.1 31.7 92.3 31.2Q91.4 30.8 91.0 29.9Q90.5 29.0 90.5 27.8L90.5 27.8Q90.5 26.7 91.0 25.8Q91.4 24.9 92.2 24.4Q93.0 23.9 94.2 23.9L94.2 23.9Q94.9 23.9 95.6 24.2Q96.2 24.4 96.7 24.9Q97.2 25.4 97.5 26.1Q97.7 26.8 97.7 27.7L97.7 27.7L97.7 28.3L91.3 28.3L91.3 27.0L96.7 27.0L95.8 27.4Q95.8 26.8 95.6 26.3Q95.4 25.9 95.1 25.7Q94.7 25.4 94.2 25.4L94.2 25.4Q93.6 25.4 93.3 25.7Q92.9 25.9 92.7 26.3Q92.5 26.8 92.5 27.3L92.5 27.3L92.5 28.2Q92.5 28.8 92.7 29.3Q93.0 29.7 93.4 30.0Q93.8 30.2 94.3 30.2L94.3 30.2Q94.6 30.2 94.9 30.1Q95.2 30.0 95.5 29.8Q95.7 29.6 95.8 29.3L95.8 29.3L97.6 29.5Q97.4 30.2 97.0 30.7Q96.5 31.2 95.8 31.4Q95.1 31.7 94.2 31.7ZM102.4 31.7L102.4 31.7Q101.3 31.7 100.5 31.2Q99.6 30.7 99.2 29.9Q98.7 29.0 98.7 27.8L98.7 27.8Q98.7 26.6 99.2 25.8Q99.6 24.9 100.5 24.4Q101.3 23.9 102.4 23.9L102.4 23.9Q103.1 23.9 103.7 24.1Q104.3 24.3 104.7 24.6Q105.2 25.0 105.5 25.4Q105.8 25.9 105.8 26.5L105.8 26.5L103.9 26.8Q103.9 26.5 103.7 26.3Q103.6 26.0 103.4 25.9Q103.3 25.7 103.0 25.6Q102.8 25.5 102.5 25.5L102.5 25.5Q101.9 25.5 101.6 25.8Q101.2 26.1 101.0 26.6Q100.8 27.1 100.8 27.8L100.8 27.8Q100.8 28.5 101.0 29.0Q101.2 29.5 101.6 29.8Q101.9 30.1 102.5 30.1L102.5 30.1Q102.8 30.1 103.0 30.0Q103.3 29.9 103.4 29.7Q103.6 29.6 103.8 29.3Q103.9 29.1 103.9 28.8L103.9 28.8L105.9 29.1Q105.8 29.7 105.5 30.2Q105.2 30.6 104.8 31.0Q104.3 31.3 103.7 31.5Q103.1 31.7 102.4 31.7ZM106.5 24.0L111.1 24.0L111.1 25.6L106.5 25.6L106.5 24.0ZM107.6 29.5L107.6 22.2L109.6 22.2L109.6 29.3Q109.6 29.7 109.8 29.9Q109.9 30.0 110.3 30.0L110.3 30.0Q110.5 30.0 110.7 30.0Q110.9 30.0 111.0 30.0L111.0 30.0L111.2 31.5Q110.9 31.6 110.6 31.6Q110.2 31.6 109.9 31.6L109.9 31.6Q108.8 31.6 108.2 31.1Q107.6 30.6 107.6 29.5L107.6 29.5Z M119.0 31.7L119.0 31.7Q117.8 31.7 117.0 31.2Q116.2 30.7 115.7 29.9Q115.3 29.0 115.3 27.8L115.3 27.8Q115.3 26.6 115.7 25.8Q116.2 24.9 117.0 24.4Q117.8 23.9 119.0 23.9L119.0 23.9Q120.1 23.9 121.0 24.4Q121.8 24.9 122.2 25.8Q122.7 26.6 122.7 27.8L122.7 27.8Q122.7 29.0 122.2 29.9Q121.8 30.7 121.0 31.2Q120.1 31.7 119.0 31.7ZM119.0 30.1L119.0 30.1Q119.5 30.1 119.9 29.8Q120.2 29.5 120.4 29.0Q120.6 28.5 120.6 27.8L120.6 27.8Q120.6 27.1 120.4 26.6Q120.2 26.1 119.9 25.8Q119.5 25.5 119.0 25.5L119.0 25.5Q118.4 25.5 118.1 25.8Q117.7 26.1 117.5 26.6Q117.3 27.1 117.3 27.8L117.3 27.8Q117.3 28.5 117.5 29.0Q117.7 29.5 118.1 29.8Q118.4 30.1 119.0 30.1ZM123.3 24.0L128.3 24.0L128.3 25.6L123.3 25.6L123.3 24.0ZM126.7 31.6L124.7 31.6L124.7 23.4Q124.7 22.6 125.0 22.0Q125.3 21.5 125.9 21.3Q126.4 21.0 127.1 21.0L127.1 21.0Q127.6 21.0 128.0 21.1Q128.4 21.1 128.5 21.2L128.5 21.2L128.2 22.7Q128.1 22.7 127.9 22.7Q127.8 22.6 127.6 22.6L127.6 22.6Q127.1 22.6 126.9 22.9Q126.7 23.1 126.7 23.5L126.7 23.5L126.7 31.6Z M132.1 24.0L136.7 24.0L136.7 25.6L132.1 25.6L132.1 24.0ZM133.2 29.5L133.2 22.2L135.2 22.2L135.2 29.3Q135.2 29.7 135.4 29.9Q135.5 30.0 135.9 30.0L135.9 30.0Q136.1 30.0 136.3 30.0Q136.5 30.0 136.6 30.0L136.6 30.0L136.8 31.5Q136.5 31.6 136.2 31.6Q135.8 31.6 135.5 31.6L135.5 31.6Q134.4 31.6 133.8 31.1Q133.2 30.6 133.2 29.5L133.2 29.5ZM140.0 27.2L140.0 27.2L140.0 31.6L137.9 31.6L137.9 21.4L139.9 21.4L139.9 25.9L139.7 25.9Q140.0 25.0 140.7 24.4Q141.3 23.9 142.2 23.9L142.2 23.9Q143.0 23.9 143.6 24.2Q144.2 24.6 144.5 25.2Q144.9 25.9 144.9 26.8L144.9 26.8L144.9 31.6L142.8 31.6L142.8 27.1Q142.8 26.4 142.4 26.0Q142.1 25.6 141.4 25.6L141.4 25.6Q141.0 25.6 140.7 25.8Q140.3 26.0 140.2 26.4Q140.0 26.7 140.0 27.2ZM149.9 31.7L149.9 31.7Q148.8 31.7 148.0 31.2Q147.1 30.8 146.7 29.9Q146.2 29.0 146.2 27.8L146.2 27.8Q146.2 26.7 146.7 25.8Q147.1 24.9 147.9 24.4Q148.7 23.9 149.8 23.9L149.8 23.9Q150.6 23.9 151.3 24.2Q151.9 24.4 152.4 24.9Q152.9 25.4 153.2 26.1Q153.4 26.8 153.4 27.7L153.4 27.7L153.4 28.3L147.0 28.3L147.0 27.0L152.4 27.0L151.5 27.4Q151.5 26.8 151.3 26.3Q151.1 25.9 150.8 25.7Q150.4 25.4 149.9 25.4L149.9 25.4Q149.3 25.4 149.0 25.7Q148.6 25.9 148.4 26.3Q148.2 26.8 148.2 27.3L148.2 27.3L148.2 28.2Q148.2 28.8 148.4 29.3Q148.7 29.7 149.1 30.0Q149.5 30.2 150.0 30.2L150.0 30.2Q150.3 30.2 150.6 30.1Q150.9 30.0 151.2 29.8Q151.4 29.6 151.5 29.3L151.5 29.3L153.3 29.5Q153.1 30.2 152.7 30.7Q152.2 31.2 151.5 31.4Q150.8 31.7 149.9 31.7Z M161.6 31.6L161.6 31.6L159.0 31.6L159.0 29.8L161.5 29.8Q162.5 29.8 163.2 29.4Q163.9 29.1 164.2 28.3Q164.5 27.6 164.5 26.5L164.5 26.5Q164.5 25.3 164.2 24.6Q163.9 23.9 163.2 23.5Q162.5 23.2 161.5 23.2L161.5 23.2L158.9 23.2L158.9 21.4L161.7 21.4Q163.2 21.4 164.3 22.0Q165.4 22.6 166.0 23.7Q166.6 24.9 166.6 26.5L166.6 26.5Q166.6 28.0 166.0 29.2Q165.4 30.3 164.3 30.9Q163.2 31.6 161.6 31.6ZM158.0 21.4L160.1 21.4L160.1 31.6L158.0 31.6L158.0 21.4ZM170.2 31.7L170.2 31.7Q169.5 31.7 168.9 31.5Q168.3 31.2 168.0 30.7Q167.7 30.2 167.7 29.5L167.7 29.5Q167.7 28.8 167.9 28.4Q168.1 28.0 168.5 27.7Q168.9 27.4 169.5 27.3Q170.0 27.2 170.5 27.1L170.5 27.1Q171.2 27.1 171.6 27.0Q172.0 26.9 172.2 26.8Q172.4 26.7 172.4 26.4L172.4 26.4L172.4 26.4Q172.4 26.1 172.2 25.9Q172.1 25.7 171.8 25.5Q171.6 25.4 171.2 25.4L171.2 25.4Q170.8 25.4 170.5 25.5Q170.2 25.7 170.0 25.9Q169.8 26.1 169.8 26.3L169.8 26.3L167.9 26.1Q168.0 25.4 168.5 24.9Q168.9 24.4 169.6 24.2Q170.3 23.9 171.2 23.9L171.2 23.9Q171.8 23.9 172.4 24.1Q173.0 24.2 173.4 24.5Q173.9 24.8 174.2 25.3Q174.4 25.8 174.4 26.5L174.4 26.5L174.4 31.6L172.5 31.6L172.5 30.5L172.4 30.5Q172.2 30.9 171.9 31.1Q171.6 31.4 171.2 31.6Q170.8 31.7 170.2 31.7ZM170.8 30.3L170.8 30.3Q171.3 30.3 171.6 30.1Q172.0 29.9 172.2 29.6Q172.4 29.3 172.4 28.8L172.4 28.8L172.4 28.0Q172.3 28.1 172.1 28.2Q172.0 28.2 171.7 28.3Q171.5 28.3 171.3 28.3Q171.1 28.4 170.9 28.4L170.9 28.4Q170.5 28.4 170.2 28.6Q169.9 28.7 169.8 28.9Q169.6 29.1 169.6 29.4L169.6 29.4Q169.6 29.7 169.8 29.9Q169.9 30.1 170.2 30.2Q170.4 30.3 170.8 30.3ZM176.1 34.3L176.1 34.3L176.4 32.7L176.8 32.8Q177.2 32.9 177.5 32.8Q177.8 32.8 178.0 32.6Q178.1 32.4 178.2 32.0L178.2 32.0L178.3 31.6L175.4 24.0L177.6 24.0L178.9 27.9Q179.1 28.6 179.2 29.3Q179.4 30.1 179.6 30.9L179.6 30.9L179.1 30.9Q179.3 30.1 179.5 29.3Q179.6 28.6 179.9 27.9L179.9 27.9L181.2 24.0L183.3 24.0L180.1 32.5Q179.9 33.1 179.5 33.6Q179.2 34.0 178.7 34.2Q178.1 34.5 177.4 34.5L177.4 34.5Q177.0 34.5 176.7 34.4Q176.3 34.4 176.1 34.3Z "/>
  <g transform="matrix(0.294465, 0, 0, 0.297973, 7.882867, 3.377346)" style="">
    <polygon fill="#ff8d46" points="79.7,45.6 60,55.5 40.3,45.6 15.9,94.3 31.1,92.8 38.9,105.9 60,63.9 81.1,105.9 88.9,92.8 104.1,94.3"/>
    <circle fill="#ff803b" cx="60" cy="46.4" r="32.2"/>
    <circle fill="#ff6900" cx="60" cy="46.4" r="25.3"/>
    <path fill="#FFFFFF" d="M61.2,31.2l4.2,8.4c0.2,0.4,0.6,0.7,1,0.8l9.3,1.4c1.1,0.2,1.6,1.5,0.8,2.3l-6.7,6.6c-0.3,0.3-0.5,0.8-0.4,1.2 l1.6,9.3c0.2,1.1-1,2-2,1.4l-8.3-4.4c-0.4-0.2-0.9-0.2-1.3,0L51,62.6c-1,0.5-2.2-0.3-2-1.4l1.6-9.3c0.1-0.4-0.1-0.9-0.4-1.2 l-6.7-6.6c-0.8-0.8-0.4-2.2,0.8-2.3l9.3-1.4c0.4-0.1,0.8-0.3,1-0.8l4.2-8.4C59.3,30.2,60.7,30.2,61.2,31.2z"/>
  </g>
  <text style="fill: rgb(161, 161, 170); font-family: Arial, sans-serif; font-size: 11px; font-weight: 700; white-space: pre;" x="45.555" y="16.956">Dev Hub</text>
  <text style="white-space: pre; fill: rgb(51, 51, 51); font-family: Arial, sans-serif; font-size: 28px;" x="99.397" y="14.033">Enter your text here</text>
</svg>